<!--https://www.figma.com/design/0tnvi0DpvsRXqSkYg2qRhd/Medicine-&#45;&#45;Health-Icons&#45;&#45;Community-?node-id=517-256&t=l3Bk8b0glzxljuQS-0-->
<svg class="w-9 h-9"
     viewBox="0 0 33 38"
     fill="none"
     stroke="currentColor"
     stroke-width="1.5"
     xmlns="http://www.w3.org/2000/svg">
    <path d="M5.94676 1C5.94676 1 6.73674 6.32 3.2325 11.92C-1.36554 19.26 2.38176 33.42 3.51608 37"
          stroke-miterlimit="10" stroke-linecap="round" stroke-linejoin="round"/>
    <path d="M4.9339 23.7401C4.9339 23.7401 12.1247 27.8201 16.4999 22.5001V13.3201"
          stroke-miterlimit="10" stroke-linecap="round" stroke-linejoin="round"/>
    <path d="M15.1225 36.7C15.1225 36.7 16.9456 29.6799 14.92 23.9399"  stroke-miterlimit="10"
          stroke-linecap="round" stroke-linejoin="round"/>
    <path d="M27.0531 1C27.0531 1 26.2631 6.32 29.7674 11.92C34.3654 19.26 30.6181 33.42 29.4838 37"
          stroke-miterlimit="10" stroke-linecap="round" stroke-linejoin="round"/>
    <path d="M28.0661 23.7401C28.0661 23.7401 20.855 27.8201 16.4798 22.5001V13.3201"
          stroke-miterlimit="10" stroke-linecap="round" stroke-linejoin="round"/>
    <path d="M17.8569 36.7C17.8569 36.7 16.0542 29.7 18.0595 23.96"  stroke-miterlimit="10"
          stroke-linecap="round" stroke-linejoin="round"/>
</svg>
