<!--https://www.figma.com/design/0tnvi0DpvsRXqSkYg2qRhd/Medicine-&#45;&#45;Health-Icons&#45;&#45;Community-?node-id=517-256&t=l3Bk8b0glzxljuQS-0-->
<svg class="w-9 h-9"
     viewBox="0 0 48 48"
     fill="currentColor"
     xmlns="http://www.w3.org/2000/svg">
    <path fill-rule="evenodd" clip-rule="evenodd"
          d="M24.0005 18.25C27.0381 18.25 29.5005 15.7876 29.5005 12.75C29.5005 9.71243 27.0381 7.25 24.0005 7.25C20.9629 7.25 18.5005 9.71243 18.5005 12.75C18.5005 15.7876 20.9629 18.25 24.0005 18.25ZM24.0005 16.25C25.9335 16.25 27.5005 14.683 27.5005 12.75C27.5005 10.817 25.9335 9.25 24.0005 9.25C22.0675 9.25 20.5005 10.817 20.5005 12.75C20.5005 14.683 22.0675 16.25 24.0005 16.25ZM18.0005 30.1904C18.0005 30.3121 18.0115 30.4439 18.0334 30.5831C16.18 32.1737 15.0005 34.5026 15.0005 37.1071C15.0005 38.0638 15.1898 39.4959 15.7371 40.7275C16.2784 41.9459 17.319 43.25 19.1116 43.25C20.8566 43.25 22.3338 41.8768 22.3338 40.1071C22.3338 39.3542 22.0312 38.7036 21.8262 38.2627L21.7968 38.1994C21.5607 37.6897 21.4449 37.4013 21.4449 37.1071C21.4449 36.8181 21.6108 36.3355 21.9713 35.7833C22.1808 35.4624 22.4191 35.1746 22.6453 34.9483C23.114 35.1293 23.5741 35.25 24.0005 35.25C24.427 35.25 24.8871 35.1294 25.3557 34.9484C25.5819 35.1746 25.8202 35.4625 26.0297 35.7833C26.3902 36.3355 26.556 36.8181 26.556 37.1071C26.556 37.3932 26.4397 37.6876 26.2023 38.2062L26.1712 38.274C25.968 38.7156 25.6672 39.3698 25.6672 40.1071C25.6672 41.8768 27.1444 43.25 28.8894 43.25C30.676 43.25 31.7067 41.8615 32.2388 40.6608C32.7881 39.4212 33.0005 37.9942 33.0005 37.1071C33.0005 34.5027 31.821 32.1738 29.9677 30.5832C29.9896 30.444 30.0005 30.3121 30.0005 30.1904V25.0511C30.3967 24.9732 30.7985 24.8879 31.2066 24.7955C32.0387 24.6073 32.8983 24.3894 33.7956 24.1427C35.3932 23.7036 36.3323 22.0526 35.8932 20.4549C35.4541 18.8573 33.803 17.9182 32.2054 18.3573C28.8414 19.2819 26.3867 19.6745 24.013 19.6644C21.6295 19.6544 19.1624 19.2381 15.76 18.3477C14.1571 17.9283 12.5177 18.8877 12.0982 20.4906C11.6788 22.0934 12.6381 23.7329 14.241 24.1523C15.5641 24.4985 16.8064 24.7916 18.0005 25.0248V30.1904ZM33.0281 22.2791C33.1069 22.2577 33.186 22.2361 33.2655 22.2143C33.798 22.0679 34.1111 21.5175 33.9647 20.985C33.8184 20.4525 33.268 20.1394 32.7355 20.2858C29.2708 21.238 26.6242 21.6755 24.0045 21.6644C21.3816 21.6533 18.7309 21.1925 15.2536 20.2826C14.7193 20.1428 14.1729 20.4626 14.0331 20.9969C13.8932 21.5312 14.213 22.0776 14.7473 22.2174C16.3448 22.6355 17.7967 22.9677 19.1726 23.208C19.6513 23.2916 20.0005 23.7071 20.0005 24.1931V27.25H28.0005V24.2197C28.0005 23.7335 28.3502 23.3178 28.8291 23.2345C30.1381 23.0067 31.5178 22.6885 33.0281 22.2791ZM17.0005 37.1071C17.0005 35.3412 17.7115 33.7276 18.8857 32.523C19.2868 33.0651 19.8461 33.5934 20.5984 33.9898C20.6485 34.0162 20.6995 34.0421 20.7514 34.0673C20.5891 34.2669 20.436 34.4765 20.2966 34.6899C19.8552 35.366 19.4449 36.2443 19.4449 37.1071C19.4449 37.8827 19.7516 38.5434 19.9603 38.9931L19.9819 39.0398C20.2224 39.559 20.3338 39.8331 20.3338 40.1071C20.3338 40.7044 19.8212 41.25 19.1116 41.25C18.4906 41.25 17.9756 40.8399 17.5648 39.9154C17.1599 39.0042 17.0005 37.8648 17.0005 37.1071ZM27.7044 34.6899C27.565 34.4765 27.4119 34.2669 27.2496 34.0673C28.0796 33.6639 28.6875 33.1013 29.1153 32.5231C30.2895 33.7277 31.0005 35.3412 31.0005 37.1071C31.0005 37.7587 30.8301 38.9031 30.4103 39.8504C29.9734 40.8364 29.4484 41.25 28.8894 41.25C28.1798 41.25 27.6672 40.7044 27.6672 40.1071C27.6672 39.8455 27.7783 39.5686 28.0209 39.0385L28.0428 38.9908C28.2503 38.5385 28.556 37.8719 28.556 37.1071C28.556 36.2443 28.1458 35.366 27.7044 34.6899ZM26.1435 32.6027C27.5437 32.0701 28 30.9586 28 30.5259V29.2H20V30.5259C20 30.9586 20.4563 32.0701 21.8565 32.6027C22.0167 32.6636 22.1968 32.74 22.3586 32.8087L22.4539 32.849C22.6528 32.933 22.8453 33.0124 23.04 33.0829C23.446 33.2298 23.7627 33.3 24 33.3C24.2373 33.3 24.554 33.2298 24.96 33.0829C25.1547 33.0124 25.3472 32.933 25.5461 32.849L25.6413 32.8087M26.1435 32.6027C25.9833 32.6636 25.8032 32.74 25.6413 32.8087L26.1435 32.6027Z"
    />
</svg>
