<!--https://www.figma.com/design/0tnvi0DpvsRXqSkYg2qRhd/Medicine-&#45;&#45;Health-Icons&#45;&#45;Community-?node-id=512-571&p=f&t=l3Bk8b0glzxljuQS-0-->
<svg class="w-9 h-9"
     viewBox="0 0 24 24"
     stroke="currentColor"
     fill="none"
     xmlns="http://www.w3.org/2000/svg">
    <path d="M18.5074 2L14.7396 5.76777C13.9586 6.54882 12.6899 6.47391 11.6325 6.15445C10.566 5.83224 9.47943 6.02331 8.81099 6.69175C7.69292 7.80982 7.73629 9.66594 8.90787 10.8375C10.0794 12.0091 11.2948 10.7856 12.25 11.7426C13.2037 12.6981 11.9789 13.9086 13.1505 15.0801C14.3221 16.2517 16.1782 16.2951 17.2963 15.177C17.9603 14.513 18.1756 13.4585 17.8783 12.4149C17.5757 11.3526 17.4941 10.0844 18.2751 9.30331L22.0429 5.53553M5.53553 21.988L8.08577 19.4226C8.86613 18.6376 10.1425 18.7167 11.2127 18.9996C12.3021 19.2877 13.4424 19.0373 14.2319 18.2963C14.9111 17.6589 15.168 16.8204 15.0656 16M2 18.4525L4.56883 15.9142C5.35784 15.1345 5.27873 13.8552 4.9975 12.7822C4.71346 11.6985 4.97213 10.5714 5.74665 9.811C6.39752 9.17202 7.20782 8.90945 8.00005 8.98511"
          stroke-width="1" stroke-linecap="round" stroke-linejoin="round"/>
</svg>