<!--https://www.figma.com/design/0tnvi0DpvsRXqSkYg2qRhd/Medicine-&#45;&#45;Health-Icons&#45;&#45;Community-?node-id=517-256&t=l3Bk8b0glzxljuQS-0-->
<svg class="w-6 h-6"
     viewBox="0 0 38 38"
     stroke="currentColor"
     stroke-width="2"
     fill="none"
     xmlns="http://www.w3.org/2000/svg"
>
    <path d="M24.8601 1C24.8601 1 34.0601 3.19096 37.0001 13.5025" stroke-miterlimit="10"
          stroke-linecap="round" stroke-linejoin="round"/>
    <path d="M23.7199 5.46237C23.7199 5.46237 30.4999 7.65334 32.5399 14.4875" stroke-miterlimit="10"
          stroke-linecap="round" stroke-linejoin="round"/>
    <path d="M22.8798 9.62308C22.8798 9.62308 27.0598 11.6733 28.1398 15.3115" stroke-miterlimit="10"
          stroke-linecap="round" stroke-linejoin="round"/>
    <path d="M22.5 15.4725C26.66 19.6534 26.68 23.0101 26.68 23.0101L24.84 24.8594C24.62 25.0805 24.28 25.1408 24 24.98C22.52 24.1358 19.38 24.2765 18.98 24.6986C18.52 25.1609 18.98 24.6986 18.98 24.6986L10.58 33.1408C10.38 33.3418 10.1 33.4624 9.79997 33.4624L4.27997 33.784L4.55997 28.1961C4.57997 27.9348 4.69997 27.6935 4.87997 27.4925L13.32 19.0102C13.32 19.0102 12.84 19.4926 13.32 19.0102C13.74 18.588 13.88 15.4322 13.04 13.9649C12.88 13.7036 12.94 13.3418 13.16 13.1207L15 11.2715C15.02 11.2916 18.34 11.2915 22.5 15.4725Z"
          stroke-miterlimit="10" stroke-linecap="round" stroke-linejoin="round"/>
    <path d="M15.44 22.4874L13.02 24.9196" stroke-miterlimit="10" stroke-linecap="round"
          stroke-linejoin="round"/>
    <path d="M4.3 33.7839L1 37" stroke-miterlimit="10" stroke-linecap="round" stroke-linejoin="round"/>
</svg>
